<svg xmlns="http://www.w3.org/2000/svg" width="1600" height="1000" viewBox="0 0 1600 1000">
  <defs>
    <pattern id="gridDark" width="24" height="24" patternUnits="userSpaceOnUse">
      <path d="M24 0H0V24" fill="none" stroke="#F3F0E6" stroke-opacity=".07"/>
    </pattern>
    <pattern id="gridLight" width="24" height="24" patternUnits="userSpaceOnUse">
      <path d="M24 0H0V24" fill="none" stroke="#10120F" stroke-opacity=".08"/>
    </pattern>
    <clipPath id="p8"><rect x="548" y="664" width="504" height="304" rx="22"/></clipPath>
  </defs>
  <rect width="1600" height="1000" fill="#090B09"/>

  <!-- 01: primary signature -->
  <rect x="32" y="32" width="504" height="304" rx="22" fill="#10120F" stroke="#2B2F27"/>
  <text x="60" y="69" fill="#969C8B" font-family="ui-monospace, monospace" font-size="11" letter-spacing="2.5">01 / PRIMARY SIGNATURE</text>
  <g transform="translate(60 112)">
    <rect width="96" height="96" rx="22" fill="#D7F25A"/>
    <path d="M25 20v32c0 11 9 20 20 20h32" fill="none" stroke="#10120F" stroke-linecap="square" stroke-width="12"/>
    <path d="M46 22v20c0 6 5 11 11 11h20" fill="none" stroke="#F3F0E6" stroke-linecap="square" stroke-width="5"/>
    <circle cx="77" cy="72" r="6" fill="#10120F"/>
  </g>
  <text x="179" y="172" fill="#F3F0E6" font-family="Arial, sans-serif" font-size="47" font-weight="700" letter-spacing="-2.5">lemonize</text>
  <text x="181" y="201" fill="#D7F25A" font-family="ui-monospace, monospace" font-size="11" letter-spacing="2">PACKAGE DELIVERY / EDGE 01</text>
  <path d="M60 273H508" stroke="#2B2F27"/>
  <text x="60" y="303" fill="#969C8B" font-family="Arial, sans-serif" font-size="14">A protective edge layer for JavaScript packages.</text>

  <!-- 02: construction -->
  <rect x="548" y="32" width="504" height="304" rx="22" fill="#F3F0E6"/>
  <rect x="548" y="32" width="504" height="304" rx="22" fill="url(#gridLight)"/>
  <text x="576" y="69" fill="#62675B" font-family="ui-monospace, monospace" font-size="11" letter-spacing="2.5">02 / EDGE-LAYER CONSTRUCTION</text>
  <g transform="translate(704 85)">
    <rect x="0" y="0" width="190" height="190" rx="40" fill="#10120F"/>
    <path d="M50 40v63c0 21.5 17.5 39 39 39h63" fill="none" stroke="#D7F25A" stroke-linecap="square" stroke-width="24"/>
    <path d="M91 44v40c0 11 9 20 20 20h40" fill="none" stroke="#F3F0E6" stroke-linecap="square" stroke-width="9"/>
    <circle cx="152" cy="142" r="11" fill="#D7F25A"/>
    <path d="M-28 0H218M-28 47.5H218M-28 95H218M-28 142.5H218M-28 190H218M0-28V218M47.5-28V218M95-28V218M142.5-28V218M190-28V218" stroke="#62675B" stroke-opacity=".25"/>
  </g>
  <text x="576" y="307" fill="#62675B" font-family="Arial, sans-serif" font-size="12">Origin path · cache layer · edge node</text>

  <!-- 03: digital application -->
  <rect x="1064" y="32" width="504" height="304" rx="22" fill="#171A15" stroke="#2B2F27"/>
  <rect x="1064" y="32" width="504" height="304" rx="22" fill="url(#gridDark)"/>
  <text x="1092" y="69" fill="#969C8B" font-family="ui-monospace, monospace" font-size="11" letter-spacing="2.5">03 / DIGITAL APPLICATION</text>
  <rect x="1092" y="94" width="448" height="207" rx="14" fill="#0C0E0B" stroke="#34382F"/>
  <circle cx="1116" cy="118" r="4" fill="#D7F25A"/><circle cx="1130" cy="118" r="4" fill="#34382F"/><circle cx="1144" cy="118" r="4" fill="#34382F"/>
  <text x="1170" y="123" fill="#969C8B" font-family="ui-monospace, monospace" font-size="10">npm.lemonize.cyou</text>
  <path d="M1092 140H1540" stroke="#252920"/>
  <text x="1118" y="174" fill="#D7F25A" font-family="ui-monospace, monospace" font-size="12">❯</text>
  <text x="1138" y="174" fill="#F3F0E6" font-family="ui-monospace, monospace" font-size="12">npm install zod --registry=https://npm.lemonize.cyou</text>
  <text x="1118" y="207" fill="#969C8B" font-family="ui-monospace, monospace" font-size="12">resolve</text>
  <text x="1192" y="207" fill="#F3F0E6" font-family="ui-monospace, monospace" font-size="12">npmjs.org / zod@latest</text>
  <rect x="1118" y="229" width="72" height="24" rx="12" fill="#D7F25A"/>
  <text x="1134" y="245" fill="#10120F" font-family="ui-monospace, monospace" font-size="9" font-weight="700" letter-spacing="1">EDGE HIT</text>
  <text x="1206" y="245" fill="#969C8B" font-family="ui-monospace, monospace" font-size="11">integrity preserved · 200</text>
  <path d="M1118 276H1513" stroke="#34382F" stroke-dasharray="3 7"/>

  <!-- 04: verbal identity -->
  <rect x="32" y="348" width="504" height="304" rx="22" fill="#D7F25A"/>
  <text x="60" y="385" fill="#465800" font-family="ui-monospace, monospace" font-size="11" letter-spacing="2.5">04 / VERBAL IDENTITY</text>
  <text x="60" y="468" fill="#10120F" font-family="Arial, sans-serif" font-size="57" font-weight="700" letter-spacing="-3.5">From origin</text>
  <text x="60" y="527" fill="#10120F" font-family="Georgia, serif" font-size="58" font-style="italic" letter-spacing="-2.5">to edge.</text>
  <path d="M60 579H508" stroke="#10120F" stroke-opacity=".25"/>
  <text x="60" y="610" fill="#465800" font-family="ui-monospace, monospace" font-size="11" letter-spacing="1.2">DIRECT / PRECISE / DEVELOPER-FIRST</text>

  <!-- 05: color -->
  <rect x="548" y="348" width="504" height="304" rx="22" fill="#FBF9F2"/>
  <text x="576" y="385" fill="#62675B" font-family="ui-monospace, monospace" font-size="11" letter-spacing="2.5">05 / CORE COLOR</text>
  <rect x="576" y="410" width="448" height="80" rx="12" fill="#10120F"/>
  <text x="594" y="459" fill="#F3F0E6" font-family="ui-monospace, monospace" font-size="12">CARBON / #10120F</text>
  <rect x="576" y="502" width="214" height="80" rx="12" fill="#D7F25A"/>
  <text x="594" y="551" fill="#10120F" font-family="ui-monospace, monospace" font-size="12">CITRON / #D7F25A</text>
  <rect x="802" y="502" width="222" height="80" rx="12" fill="#F3F0E6" stroke="#D9DCCE"/>
  <text x="820" y="551" fill="#10120F" font-family="ui-monospace, monospace" font-size="12">PULP / #F3F0E6</text>
  <text x="576" y="620" fill="#62675B" font-family="Arial, sans-serif" font-size="12">One signal color. No gradients. Warm utility neutrals.</text>

  <!-- 06: typography -->
  <rect x="1064" y="348" width="504" height="304" rx="22" fill="#10120F" stroke="#2B2F27"/>
  <text x="1092" y="385" fill="#969C8B" font-family="ui-monospace, monospace" font-size="11" letter-spacing="2.5">06 / TYPOGRAPHY</text>
  <text x="1092" y="452" fill="#F3F0E6" font-family="Arial, sans-serif" font-size="46" font-weight="700" letter-spacing="-2.5">Geist Sans</text>
  <text x="1094" y="489" fill="#969C8B" font-family="Arial, sans-serif" font-size="14">Interface / headlines / navigation</text>
  <text x="1092" y="548" fill="#D7F25A" font-family="Georgia, serif" font-size="38" font-style="italic">Newsreader Italic</text>
  <text x="1094" y="578" fill="#969C8B" font-family="Arial, sans-serif" font-size="14">Editorial emphasis only</text>
  <text x="1092" y="619" fill="#F3F0E6" font-family="ui-monospace, monospace" font-size="13" letter-spacing="1">GEIST MONO / STATUS + CODE</text>

  <!-- 07: physical application -->
  <rect x="32" y="664" width="504" height="304" rx="22" fill="#E7E4DA"/>
  <text x="60" y="701" fill="#62675B" font-family="ui-monospace, monospace" font-size="11" letter-spacing="2.5">07 / PACKAGE LABEL</text>
  <g transform="rotate(-5 285 826)">
    <rect x="78" y="739" width="414" height="174" rx="8" fill="#F8F5EB" stroke="#CACEC0"/>
    <rect x="78" y="739" width="82" height="174" fill="#10120F"/>
    <rect x="96" y="763" width="46" height="46" rx="10" fill="#D7F25A"/>
    <path d="M108 773v14c0 5.5 4.5 10 10 10h14" fill="none" stroke="#10120F" stroke-width="6"/>
    <circle cx="132" cy="797" r="3" fill="#10120F"/>
    <text x="184" y="783" fill="#10120F" font-family="Arial, sans-serif" font-size="23" font-weight="700">@lemonize/cli</text>
    <text x="184" y="811" fill="#62675B" font-family="ui-monospace, monospace" font-size="11" letter-spacing="1">IMMUTABLE / SHA-512 / EDGE READY</text>
    <path d="M184 837H462" stroke="#D9DCCE"/>
    <text x="184" y="870" fill="#10120F" font-family="ui-monospace, monospace" font-size="12">ORIGIN  →  CACHE  →  EDGE</text>
    <circle cx="453" cy="868" r="7" fill="#D7F25A"/>
  </g>

  <!-- 08: image direction -->
  <rect x="548" y="664" width="504" height="304" rx="22" fill="#10120F" stroke="#2B2F27"/>
  <g clip-path="url(#p8)">
    <rect x="548" y="664" width="504" height="304" fill="url(#gridDark)"/>
    <path d="M516 918C654 918 639 771 768 771s102 128 250 128 152-146 268-146" fill="none" stroke="#D7F25A" stroke-width="3"/>
    <path d="M516 937C663 937 662 794 768 794s116 128 250 128 163-139 268-139" fill="none" stroke="#F3F0E6" stroke-opacity=".35"/>
    <circle cx="768" cy="771" r="12" fill="#10120F" stroke="#D7F25A" stroke-width="3"/>
    <circle cx="1018" cy="899" r="12" fill="#10120F" stroke="#D7F25A" stroke-width="3"/>
    <circle cx="768" cy="771" r="4" fill="#D7F25A"/><circle cx="1018" cy="899" r="4" fill="#D7F25A"/>
  </g>
  <text x="576" y="701" fill="#969C8B" font-family="ui-monospace, monospace" font-size="11" letter-spacing="2.5">08 / IMAGE DIRECTION</text>
  <text x="576" y="743" fill="#F3F0E6" font-family="Arial, sans-serif" font-size="20" font-weight="700">Infrastructure as a visible route.</text>
  <text x="576" y="946" fill="#969C8B" font-family="ui-monospace, monospace" font-size="10" letter-spacing="1">NO CLOUD STOCK / NO FRUIT MASCOT / NO GLOW</text>

  <!-- 09: system detail -->
  <rect x="1064" y="664" width="504" height="304" rx="22" fill="#F3F0E6"/>
  <text x="1092" y="701" fill="#62675B" font-family="ui-monospace, monospace" font-size="11" letter-spacing="2.5">09 / SYSTEM DETAIL</text>
  <rect x="1092" y="730" width="448" height="58" rx="10" fill="#10120F"/>
  <text x="1112" y="765" fill="#D7F25A" font-family="ui-monospace, monospace" font-size="12">❯</text>
  <text x="1134" y="765" fill="#F3F0E6" font-family="ui-monospace, monospace" font-size="12">npm install @lemonize/cli</text>
  <g transform="translate(1092 820)">
    <rect width="94" height="32" rx="16" fill="#D7F25A"/>
    <text x="18" y="21" fill="#10120F" font-family="ui-monospace, monospace" font-size="9" font-weight="700" letter-spacing="1">EDGE HIT</text>
    <rect x="106" width="108" height="32" rx="16" fill="#EAF4B5" stroke="#D7F25A"/>
    <text x="124" y="21" fill="#465800" font-family="ui-monospace, monospace" font-size="9" font-weight="700" letter-spacing="1">VERIFIED</text>
    <rect x="226" width="118" height="32" rx="16" fill="none" stroke="#BFC3B6"/>
    <text x="244" y="21" fill="#62675B" font-family="ui-monospace, monospace" font-size="9" font-weight="700" letter-spacing="1">UPSTREAM</text>
  </g>
  <path d="M1092 885H1540" stroke="#D9DCCE"/>
  <text x="1092" y="919" fill="#10120F" font-family="Arial, sans-serif" font-size="14" font-weight="700">lemonize</text>
  <text x="1190" y="919" fill="#62675B" font-family="ui-monospace, monospace" font-size="11">npm.lemonize.cyou</text>
  <text x="1092" y="946" fill="#62675B" font-family="Arial, sans-serif" font-size="11">v1.0 / production identity / July 2026</text>
</svg>
